<svg width="28" height="28" viewBox="0 0 28 28" fill="none" xmlns="http://www.w3.org/2000/svg">
<path d="M4.60156 5.25H23.3956C23.5651 5.25 23.731 5.29924 23.873 5.39173C24.0151 5.48423 24.1272 5.61599 24.1958 5.77102C24.2644 5.92604 24.2864 6.09764 24.2593 6.26498C24.2322 6.43231 24.1571 6.58816 24.043 6.71359L16.8511 14.6247C16.7047 14.7858 16.6236 14.9956 16.6236 15.2133V21.4067C16.6236 21.5508 16.588 21.6926 16.52 21.8196C16.4521 21.9466 16.3538 22.0549 16.2339 22.1348L12.7339 24.4681C12.6022 24.5559 12.449 24.6064 12.2908 24.614C12.1326 24.6217 11.9753 24.5862 11.8357 24.5115C11.6961 24.4368 11.5793 24.3256 11.498 24.1897C11.4166 24.0538 11.3736 23.8984 11.3736 23.74V15.2133C11.3736 14.9956 11.2924 14.7858 11.146 14.6247L3.95412 6.71359C3.84009 6.58816 3.76495 6.43231 3.73783 6.26498C3.71071 6.09764 3.73279 5.92604 3.80136 5.77102C3.86994 5.61599 3.98207 5.48423 4.12413 5.39173C4.26618 5.29924 4.43205 5.25 4.60156 5.25V5.25Z" stroke="#01CD7D" stroke-width="1.5" stroke-linecap="round" stroke-linejoin="round"/>
</svg>
