<svg width="20" height="20" viewBox="0 0 20 20" fill="none" xmlns="http://www.w3.org/2000/svg">
<path d="M17.5 13.8532V6.14679C17.5 6.03589 17.4705 5.92699 17.4145 5.83126C17.3585 5.73553 17.2781 5.65642 17.1814 5.60205L10.3064 1.73487C10.2129 1.68224 10.1073 1.6546 10 1.6546C9.89266 1.6546 9.78714 1.68224 9.69359 1.73487L2.81859 5.60205C2.72193 5.65642 2.64148 5.73553 2.58549 5.83126C2.52951 5.92699 2.5 6.03589 2.5 6.14679V13.8532C2.5 13.9641 2.52951 14.073 2.58549 14.1688C2.64148 14.2645 2.72193 14.3436 2.81859 14.398L9.69359 18.2652C9.78714 18.3178 9.89266 18.3454 10 18.3454C10.1073 18.3454 10.2129 18.3178 10.3064 18.2652L17.1814 14.398C17.2781 14.3436 17.3585 14.2645 17.4145 14.1688C17.4705 14.073 17.5 13.9641 17.5 13.8532Z" stroke="#BB6BD9" stroke-linecap="round" stroke-linejoin="round"/>
<path d="M13.8298 11.9149V7.85242L6.25 3.67188" stroke="#BB6BD9" stroke-linecap="round" stroke-linejoin="round"/>
<path d="M17.4132 5.83025L10.0735 10L2.58594 5.82947" stroke="#BB6BD9" stroke-linecap="round" stroke-linejoin="round"/>
<path d="M10.0733 10L10 18.3454" stroke="#BB6BD9" stroke-linecap="round" stroke-linejoin="round"/>
</svg>
