<svg width="18" height="18" viewBox="0 0 18 18" fill="none" xmlns="http://www.w3.org/2000/svg">
<circle cx="9" cy="9" r="9" fill="#C0C9D7"/>
<path d="M10.5527 11.9727L10.4323 12.4649C10.0711 12.6075 9.78256 12.716 9.56771 12.7906C9.35263 12.8654 9.10272 12.9027 8.81797 12.9027C8.3807 12.9027 8.04059 12.7955 7.79801 12.5828C7.55544 12.3692 7.43411 12.0985 7.43411 11.7701C7.43411 11.643 7.44292 11.5122 7.46122 11.379C7.47968 11.2456 7.50902 11.0954 7.54918 10.9275L8.00058 9.32982C8.04074 9.17683 8.07488 9.03188 8.10222 8.89479C8.12994 8.75856 8.1433 8.63322 8.1433 8.52039C8.1433 8.31635 8.10106 8.17363 8.01696 8.09339C7.93285 8.01338 7.77237 7.97276 7.53412 7.97276C7.41743 7.97276 7.29749 7.99145 7.17524 8.02759C7.05245 8.06389 6.94749 8.09895 6.85938 8.13154L6.98008 7.63898C7.27579 7.51858 7.55845 7.41548 7.82883 7.32991C8.09921 7.24411 8.35468 7.20117 8.59633 7.20117C9.03058 7.20117 9.36568 7.30612 9.601 7.51603C9.83631 7.72609 9.95393 7.9984 9.95393 8.33396C9.95393 8.40339 9.94621 8.52572 9.9296 8.70056C9.91339 8.8758 9.88319 9.03635 9.83917 9.18239L9.3897 10.7737C9.35286 10.9015 9.31973 11.0476 9.29092 11.212C9.26119 11.3754 9.24698 11.5002 9.24698 11.5839C9.24698 11.7952 9.29409 11.9395 9.38854 12.0161C9.48368 12.0928 9.64756 12.131 9.88033 12.131C9.98961 12.131 10.1139 12.1116 10.2521 12.0735C10.3899 12.0355 10.4904 12.002 10.5527 11.9727ZM10.6667 5.292C10.6667 5.56925 10.5622 5.80603 10.3522 6.00072C10.1428 6.19611 9.89037 6.29388 9.59513 6.29388C9.29895 6.29388 9.04595 6.19611 8.83411 6.00072C8.62266 5.80595 8.5167 5.56925 8.5167 5.292C8.5167 5.01529 8.62266 4.77812 8.83411 4.58095C9.04557 4.38409 9.29903 4.28571 9.59513 4.28571C9.89029 4.28571 10.1428 4.38433 10.3522 4.58095C10.5623 4.77812 10.6667 5.01536 10.6667 5.292Z" fill="#F2F6FC"/>
</svg>
