<svg width="46" height="42" viewBox="0 0 46 42" fill="none" xmlns="http://www.w3.org/2000/svg">
<path d="M45.4768 30.8447C45.1089 29.9231 44.0636 29.4742 43.142 29.8421C42.2204 30.21 41.7714 31.2552 42.1394 32.1769C42.6071 33.3487 42.4537 34.6867 41.729 35.7562C41.004 36.8262 39.8431 37.4399 38.5442 37.4399H7.46319C6.04626 37.4399 4.788 36.7006 4.09719 35.462C3.4053 34.2214 3.43782 32.7593 4.18415 31.5508L19.7246 6.38977C20.4322 5.24408 21.658 4.5601 23.0037 4.5601C24.3494 4.5601 25.575 5.24408 26.2827 6.38977L37.7762 24.9986C38.2976 25.8429 39.4049 26.1048 40.2489 25.583C41.0931 25.0617 41.3549 23.9545 40.8334 23.1103L29.3398 4.50143C27.9728 2.28804 25.6041 0.966614 23.0036 0.966614C20.403 0.966614 18.0344 2.28813 16.6673 4.50143L1.12686 29.6626C-0.313882 31.9955 -0.376593 34.8178 0.958937 37.2124C2.29339 39.605 4.72484 41.0333 7.46319 41.0333H38.5442C41.0542 41.0333 43.2993 39.8444 44.7039 37.7717C46.0979 35.7145 46.3867 33.1249 45.4768 30.8447Z" fill="#41B7E9"/>
<path d="M23.0042 33.9364C23.9965 33.9364 24.8009 33.132 24.8009 32.1397C24.8009 31.1474 23.9965 30.343 23.0042 30.343H23.0033C22.011 30.343 21.207 31.1474 21.207 32.1397C21.207 33.132 22.0119 33.9364 23.0042 33.9364Z" fill="#41B7E9"/>
<path d="M24.8004 25.8511V12.6453C24.8004 11.6529 23.9961 10.8486 23.0037 10.8486C22.0114 10.8486 21.207 11.6529 21.207 12.6453V25.8511C21.207 26.8435 22.0114 27.6478 23.0037 27.6478C23.9961 27.6478 24.8004 26.8435 24.8004 25.8511Z" fill="#41B7E9"/>
</svg>
